<?xml version="1.0" encoding="UTF-8"?>
<svg xmlns="http://www.w3.org/2000/svg" xmlns:xlink="http://www.w3.org/1999/xlink" width="81pt" height="40pt" viewBox="0 0 81 40" version="1.1">
<g id="surface1">
<path style=" stroke:none;fill-rule:nonzero;fill:rgb(99.215686%,73.333333%,1.176471%);fill-opacity:1;" d="M 19.332031 1.976562 C 19.332031 1.976562 16.40625 30.351562 51.5625 32.070312 C 51.5625 32.070312 46.011719 36.046875 32.84375 36.71875 C 19.675781 37.394531 6.117188 30.84375 2.683594 2.988281 Z M 19.332031 1.976562 "/>
<path style=" stroke:none;fill-rule:nonzero;fill:rgb(20.784314%,14.509804%,9.019608%);fill-opacity:1;" d="M 61.988281 25.410156 C 73.859375 23.933594 79.417969 17.457031 80.644531 11.789062 C 81.589844 7.40625 80.011719 3.285156 76.617188 1.285156 C 73.125 -0.777344 69.820312 -0.0859375 67.238281 1.453125 C 66.816406 0.59375 65.9375 0.0078125 64.929688 0.0078125 L 2.691406 0.0078125 C 1.339844 0.0078125 0.214844 1.0625 0.125 2.421875 C 0.109375 2.667969 -1.082031 23.496094 13.84375 34.824219 L 2.65625 34.824219 C 1.238281 34.824219 0.0859375 35.984375 0.0859375 37.414062 C 0.0859375 38.839844 1.238281 40 2.65625 40 L 76.59375 40 C 78.015625 40 79.164062 38.839844 79.164062 37.414062 C 79.164062 35.984375 78.015625 34.824219 76.59375 34.824219 L 53.777344 34.824219 C 57.371094 32.097656 60.023438 28.820312 61.988281 25.410156 Z M 74.015625 5.75 C 75.476562 6.609375 76.089844 8.503906 75.617188 10.6875 C 74.910156 13.953125 71.605469 17.929688 64.679688 19.664062 C 66.246094 15.441406 66.960938 11.378906 67.28125 8.257812 C 68.050781 7.253906 70.933594 3.929688 74.015625 5.75 Z M 24.851562 34.824219 C 7.546875 28.996094 5.417969 11.632812 5.234375 5.183594 L 62.386719 5.183594 C 62.203125 11.636719 60.070312 28.996094 42.773438 34.824219 Z M 24.851562 34.824219 "/>
</g>
</svg>
